# xmcd
#
# Track frame offsets:
#	183
#	22633
#	36638
#	60435
#	79488
#	99238
#	108363
#	124663
#	141638
#	162108
#	177833
#	188950
#	206913
#	219123
#	235665
#	250770
#	269333
#	285620
#	299818
#	331045
#
# Disc length: 4597
#
# Revision: 5
# Processed by: cddbd v1.5.1PL0 Copyright (c) Steve Scherf et al.
# Submitted via: Kscd 1.3.3
# Normalized: r3:DSETVAR1,TSWAP
#
DISCID=2511f314
DTITLE=Various Artist - Disco Fever - Volume 2
DYEAR=1900
DGENRE=
TTITLE0=Ottawan - D-I-S-C-O
TTITLE1=5000 Volts - I?m On Fire
TTITLE2=Heatwave - Boogie Nights
TTITLE3=Barbara Pennington - On A Crowded Street
TTITLE4=Gloria Gaynor - I Will Survive
TTITLE5=George McCrae - It?s Been So Long
TTITLE6=Gibson Brothers - Ooh! What A Life
TTITLE7=Sabrina - All Of Me
TTITLE8=Biddu Orchestra - Rain Forrest
TTITLE9=Miquel Brown - He?s A Saint, He?s A Sinner
TTITLE10=Tams - Hey Girl Don?t Bother Me
TTITLE11=Jimmy James and The Vagabonds - Disco Fever
TTITLE12=Archie Bell And The Drells - Look Back Over Your Shoulder
TTITLE13=Seventh Avenue - Love?s Gone Mad
TTITLE14=Harold Melvon and The Bluenotes - Wake Up Everybody
TTITLE15=The Three Degrees - My Simple Heart
TTITLE16=Gloria Gaynor - If You Want It (Do It Yourself)
TTITLE17=Tina Charles - Fairytales
TTITLE18=Gibson Brothers - Latin America
TTITLE19=Carl Douglas - Dance The Kung Fu
EXTD=
EXTT0=
EXTT1=
EXTT2=
EXTT3=
EXTT4=
EXTT5=
EXTT6=
EXTT7=
EXTT8=
EXTT9=
EXTT10=
EXTT11=
EXTT12=
EXTT13=
EXTT14=
EXTT15=
EXTT16=
EXTT17=
EXTT18=
EXTT19=
PLAYORDER=
